<?xml version="1.0" encoding="UTF-8"?>
<svg id="Grant_Thornton" data-name="Grant Thornton" xmlns="http://www.w3.org/2000/svg"
  xmlns:xlink="http://www.w3.org/1999/xlink" viewBox="80 110 177 177">
  <defs>
    <style>
      .cls-1 {
        fill: url(#linear-gradient);
      }

      .cls-1,
      .cls-2,
      .cls-3,
      .cls-4,
      .cls-5,
      .cls-6 {
        stroke-width: 0px;
      }

      .cls-2 {
        fill: none;
      }

      .cls-3 {
        fill: url(#linear-gradient-2);
      }

      .cls-4 {
        fill: url(#linear-gradient-3);
      }

      .cls-5 {
        fill: #1d1d1b;
      }

      .cls-6 {
        fill: url(#linear-gradient-4);
      }
    </style>
    <linearGradient id="linear-gradient" x1="205.66" y1="174.35" x2="83.74" y2="182.87" gradientUnits="userSpaceOnUse">
      <stop offset="0" stop-color="#522583" />
      <stop offset=".12" stop-color="#522583" />
      <stop offset=".12" stop-color="#522583" />
      <stop offset=".36" stop-color="#77549f" />
      <stop offset=".58" stop-color="#9377b5" />
      <stop offset=".76" stop-color="#a48dc2" />
      <stop offset=".87" stop-color="#ab95c7" />
      <stop offset="1" stop-color="#9b80b9" />
    </linearGradient>
    <linearGradient id="linear-gradient-2" x1="-163.73" y1="274.51" x2="-285.65" y2="283.03"
      gradientTransform="translate(-128.5 -.89) rotate(-90)" xlink:href="#linear-gradient" />
    <linearGradient id="linear-gradient-3" x1="-263.89" y1="-94.89" x2="-385.81" y2="-86.36"
      gradientTransform="translate(-129.39 127.62) rotate(-180)" xlink:href="#linear-gradient" />
    <linearGradient id="linear-gradient-4" x1="105.51" y1="-195.04" x2="-16.42" y2="-186.52"
      gradientTransform="translate(-.89 128.5) rotate(90)" xlink:href="#linear-gradient" />
  </defs>
  <g>
    <path class="cls-5"
      d="M439.95,233.81c-8.37,0-11.52-3.67-11.52-9.55,0-6.81,3.8-10.34,13.74-10.34h13.09v3.93c0,10.34-6.41,15.97-15.32,15.97ZM417.18,225.3c0,8.12,4.71,16.76,19.37,16.76,8.51,0,14.4-3.27,18.46-8.51l1.44,7.2h9.16v-38.75c0-16.62-9.95-19.5-21.73-19.5-8.9,0-20.55,2.61-23.43,15.97h11.26c1.44-4.98,4.84-7.85,12.04-7.85,5.89,0,11.52,2.09,11.52,11.51v4.06h-12.43c-14.92,0-25.66,4.97-25.66,19.11h0ZM387.2,240.75h10.6v-35.6c0-8.25,5.1-12.05,11.65-12.05,2.22,0,4.45.13,6.81.53v-10.35c-1.96-.65-3.8-.78-5.63-.78-5.89,0-10.47,3.53-12.83,8.38l-1.31-6.94h-9.29v56.81ZM763.21,240.75h10.61v-35.6c0-8.25,5.1-12.05,11.64-12.05,2.23,0,4.46.13,6.81.53v-10.35c-1.97-.65-3.79-.78-5.63-.78-5.89,0-10.48,3.53-12.83,8.38l-1.31-6.94h-9.3v56.81ZM563.9,193.23v-9.29h-11.64v-16.23l-10.87,1.71v14.53h-8.24v9.29h8.24v36.13c0,8.11,3.01,12.96,14.92,12.96,2.62,0,6.54-.52,8.9-1.18v-8.11c-2.49.65-4.84.79-6.54.79-4.97,0-6.42-2.36-6.42-7.59v-32.99h11.64ZM883.77,193.23v-9.29h-11.65v-16.23l-10.85,1.71v14.53h-8.25v9.29h8.25v36.13c0,8.11,3,12.96,14.92,12.96,2.62,0,6.54-.52,8.91-1.18v-8.11c-2.48.65-4.85.79-6.54.79-4.98,0-6.42-2.36-6.42-7.59v-32.99h11.65ZM725.78,233.42c-10.2,0-16.75-7.07-16.75-21.21s6.81-21.08,16.89-21.08,16.23,7.46,16.23,21.73-6.29,20.55-16.37,20.55h0ZM915.45,233.42c-10.21,0-16.75-7.07-16.75-21.21s6.8-21.08,16.88-21.08,16.23,7.46,16.23,21.73-6.28,20.55-16.36,20.55h0ZM799.61,240.75h10.34v-32.72c0-9.43,4.05-15.98,13.87-15.98,9.16,0,12.04,3.93,12.04,13.49v35.21h10.6v-38.22c0-13.09-5.5-19.9-17.93-19.9-8.51,0-14.79,3.14-18.59,8.51l-1.31-7.2h-9.03v56.81ZM479.35,240.75h10.34v-32.72c0-9.43,4.06-15.98,13.87-15.98,9.16,0,12.04,3.93,12.04,13.49v35.21h10.6v-38.22c0-13.09-5.5-19.9-17.93-19.9-8.51,0-14.79,3.14-18.59,8.51l-1.31-7.2h-9.03v56.81ZM953.01,240.75h10.34v-32.72c0-9.43,4.06-15.98,13.87-15.98,9.16,0,12.05,3.93,12.05,13.49v35.21h10.6v-38.22c0-13.09-5.49-19.9-17.93-19.9-8.51,0-14.8,3.14-18.59,8.51l-1.3-7.2h-9.03v56.81ZM636.38,164.44v-9.16h-60.48v9.16h24.74v76.31h11.39v-76.31h24.35ZM641.88,240.75h10.35v-32.72c0-9.43,4.05-15.98,13.87-15.98,9.16,0,12.04,3.93,12.04,13.49v35.21h10.6v-38.22c0-13.09-5.5-19.9-17.93-19.9-8.51,0-14.79,3.14-18.59,8.51v-35.87h-10.35v85.48ZM344.66,206.85h20.16v18.98c-6.15,5.37-15.58,7.46-23.17,7.46-18.98,0-29.84-12.3-29.84-33.9,0-22.91,11.65-35.6,29.58-35.6,10.73,0,18.71,3.8,26.31,10.99l6.67-7.59c-6.81-7.46-18.46-12.96-31.8-12.96-26.84,0-42.67,18.72-42.67,44.9s13.22,43.46,41.88,43.46c15.84,0,28.14-6.94,34.17-13.48v-31.03h-31.29v8.78ZM726.57,182.5c-18.85,0-28.67,12.96-28.67,30.11s9.82,29.45,27.36,29.45,28.4-11.52,28.4-29.72-10.08-29.84-27.09-29.84h0ZM916.24,182.5c-18.85,0-28.67,12.96-28.67,30.11s9.82,29.45,27.36,29.45,28.41-11.52,28.41-29.72-10.08-29.84-27.09-29.84h0Z" />
    <g>
      <path class="cls-1"
        d="M170.08,165.6c13.39,4.26,24.03,14.24,31.2,28.41.96,1.9,1.45,4.75.94,6.43.25-.66.47-1.33.69-2.01,17.18-54.03-43.69-90.25-74.6-74.05-.59.33-1.18.64-1.77.99-39.77,23.7-53.15,74.74-30.51,114.84-16.22-30.9,20-91.8,74.05-74.61Z" />
      <path class="cls-3"
        d="M137.25,198.43c4.26-13.39,14.23-24.03,28.41-31.2,1.9-.96,4.75-1.45,6.42-.94-.66-.25-1.33-.47-2-.69-54.04-17.18-90.26,43.69-74.05,74.6.33.59.64,1.18.99,1.77,23.7,39.77,74.74,53.15,114.84,30.51-30.9,16.22-91.8-20.01-74.61-74.05Z" />
      <path class="cls-4"
        d="M170.08,231.25c-13.39-4.26-24.03-14.23-31.2-28.41-.96-1.9-1.45-4.75-.94-6.43-.25.66-.47,1.33-.69,2.01-17.18,54.03,43.69,90.26,74.6,74.05.59-.33,1.18-.65,1.77-1,39.77-23.7,53.15-74.74,30.51-114.84,16.22,30.9-20.01,91.8-74.05,74.61Z" />
      <path class="cls-6"
        d="M202.91,198.42c-4.26,13.39-14.23,24.03-28.41,31.2-1.9.96-4.75,1.46-6.43.94.66.25,1.33.48,2.01.69,54.03,17.18,90.25-43.69,74.05-74.6-.33-.59-.64-1.18-.99-1.77-23.7-39.77-74.74-53.15-114.84-30.51,30.9-16.22,91.8,20,74.61,74.05Z" />
    </g>
  </g>
  <rect class="cls-2" x="0" />
</svg>